<?xml version="1.0" encoding="UTF-8" standalone="no"?>
<svg width="197px" height="70px" viewBox="0 0 197 70" version="1.1" xmlns="http://www.w3.org/2000/svg" xmlns:xlink="http://www.w3.org/1999/xlink">
    <!-- Generator: Sketch 41.2 (35397) - http://www.bohemiancoding.com/sketch -->
    <title>bus</title>
    <desc>Created with Sketch.</desc>
    <defs></defs>
    <g id="Page-1" stroke="none" stroke-width="1" fill="none" fill-rule="evenodd">
        <g id="Artboard" transform="translate(-194.000000, -73.000000)">
            <g id="bus" transform="translate(194.000000, 73.000000)">
                <g id="dynamiccolor" transform="translate(98.254934, 35.049215) rotate(180.000000) translate(-98.254934, -35.049215) translate(0.153973, 5.433831)" fill="#286BA6">
                    <path d="M1.6587624,5.9563138 C0.410792981,10.9825046 0.0844119231,20.2991603 0.0844119231,29.6317865 C0.0844119231,38.9324512 0.410792981,48.2486755 1.63909476,53.2588959 C2.56120678,57.1656918 6.15028986,59.0385189 11.3338942,58.8946518 L164.088546,58.8946518 C170.998861,58.9577527 177.526298,58.9741546 180.558492,58.493749 C187.277122,57.4046308 191.980978,55.4686822 193.017112,52.2669454 C194.995014,46.3606995 195.9146,37.9880422 195.9146,29.6153846 C195.9146,21.2435694 195.013172,12.8557733 193.036276,6.94825385 C191.99965,3.7473487 187.277122,1.82614822 180.558492,0.737440913 C177.526298,0.257025192 170.998861,0.257025192 164.088546,0.321399615 L11.3338942,0.321399615 C6.15028986,0.193503221 2.58087476,2.05078091 1.65876274,5.95631346" id="path342"></path>
                </g>
                <g id="Group" transform="translate(98.591473, 34.880946) rotate(180.000000) translate(-98.591473, -34.880946) translate(0.153973, 0.049215)">
                    <path d="M155.687737,63.0765591 L133.341185,61.9121391 C130.507516,61.7653245 128.87445,61.1065542 128.715445,60.4805873 L128.233766,58.6325735 C128.138273,58.2484936 129.514724,57.9771719 131.579822,57.9771719 L135.902649,57.9771719 C140.576331,57.9771719 144.418752,58.1487994 147.187224,58.5665352 L156.072649,59.9101522 C158.009861,60.1991597 159.385881,60.6051048 159.36988,61.0960273 L159.337918,62.647896 C159.337918,62.9444725 157.336373,63.1636415 155.687737,63.0765595" id="path344" fill="#8D8F93"></path>
                    <path d="M145.731239,58.5480175 L147.395424,62.4855215 L133.372715,61.7493437 C132.381607,61.7013812 131.372813,61.557093 130.395179,61.3168904 C128.698601,60.8684462 128.87445,60.4364142 128.410847,58.6119605 C128.410847,58.25901 130.908388,58.1315552 131.212144,58.1315552 C136.046926,58.1315552 140.912848,58.0516313 145.73124,58.5480175" id="path346" fill="#D2D2D1"></path>
                    <path d="M148.964547,62.5654454 L147.363894,58.7878092 C151.046448,59.3317365 154.855654,59.6363035 158.42507,60.5802915 C159.562551,60.9492225 159.209621,61.3168904 159.193209,62.5978483 C158.873494,62.9179644 156.423504,62.9179644 156.007864,62.9179644 L148.964547,62.5654454" id="path348" fill="#D2D2D1"></path>
                    <path d="M159.402293,62.9179647 C159.866718,62.9179647 160.250376,63.109794 160.826275,63.7180856 C161.755125,64.6944661 161.291542,65.2388248 160.986554,66.375474 C160.650426,67.5760868 160.874238,67.3838365 160.074548,68.5688692 C159.57771,69.2734966 159.049342,69.36899 158.169297,69.36899 C157.721305,69.36899 157.273683,69.0004801 157.368765,68.5688692 L158.60133,63.7180856 C158.697234,63.2860537 158.969418,62.9179647 159.402293,62.9179647" id="path350" fill="#8D8F93"></path>
                    <path d="M159.481785,62.9179647 C159.930209,62.9335347 160.394223,63.2216998 160.842667,63.7180856 C161.002945,63.8619628 161.099281,64.0222315 161.178363,64.181668 C161.818616,63.2381013 162.267491,61.3328713 161.402154,61.2849189 C160.650426,61.204985 160.314299,61.3168904 159.977329,61.3968142 C159.547002,61.4771591 159.337918,62.3252427 159.481785,62.9179644" id="path352" fill="#8D8F93"></path>
                    <path d="M130.011541,62.1174329 L131.003902,62.1174329 C131.675315,62.1174329 132.237328,62.232697 132.237328,62.3710897 L132.237328,63.2890014 C132.237328,63.4265622 131.692528,63.5418262 131.003902,63.5418262 L130.011541,63.5418262 C129.323325,63.5418262 128.778525,63.4311943 128.778525,63.2890014 L128.778525,62.3710897 C128.778525,62.2284859 129.323325,62.1174329 130.011541,62.1174329" id="path354" fill="#8D8F93"></path>
                    <path d="M126.426577,56.3710343 L126.44759,57.1223712 C136.910991,57.1551646 146.537256,57.1862937 148.140866,57.4593206 L148.140866,57.4269382 C156.005358,58.3868967 161.519112,60.6122633 166.671105,60.132279 C170.286367,59.780592 171.123091,57.6507188 171.733067,55.3302999 C173.585302,48.3504851 174.422006,41.54693 174.422006,34.6634716 C174.422006,27.7808451 173.698871,20.993281 171.755785,14.0298782 C171.123091,11.7245978 170.309085,9.59556702 166.671105,9.24345861 C161.519112,8.74706236 156.027665,10.9879885 148.140866,11.9328186 L148.140866,11.9172486 L145.203734,12.2689357 C145.112862,12.4927368 145.04514,12.7337814 145.04514,13.0051136 L147.893536,12.6370246 C148.864432,20.1447757 149.587136,27.428315 149.587136,34.6966957 C149.587136,41.9793931 148.818996,49.2469415 147.869956,56.7231421 C146.514127,56.3070907 139.644544,56.3710337 126.426577,56.3710337" id="path358" fill="#8D8F93"></path>
                    <path d="M149.125668,17.4869568 C149.972478,24.7864767 150.453726,32.1663418 150.116777,39.513814 C150.020852,43.852231 149.508896,48.302523 149.028922,52.6240965 C148.868622,54.0329303 148.676382,55.4581761 148.500533,56.851029 C153.62266,57.5232535 158.649703,59.0280018 163.788652,59.5403789 C166.12464,59.6846772 168.942718,59.7162276 170.28803,57.4753015 C171.151252,55.9545623 171.568557,53.6492819 171.936646,51.952283 C174.673567,39.7380462 174.481307,26.2916463 171.168096,14.2221187 C170.719651,12.6210347 170.223697,11.1802294 168.654554,10.3960991 C165.788102,9.17951596 161.530903,10.0919431 158.585739,10.6674313 C155.336471,11.4048621 151.895374,12.14104 148.563655,12.5255409 C148.500534,12.8452564 148.676383,13.6133957 148.708344,13.9814847 C148.852663,15.118144 148.996961,16.3347275 149.125669,17.4869568" id="path360" fill="#D2D2D1"></path>
                    <path d="M182.00546,57.2355199 C181.332383,61.0287256 183.990203,63.3180356 188.119926,59.7326396 C189.448025,58.5639984 192.089412,55.3138879 192.057862,49.3112961 C189.015972,50.1274079 182.549397,54.0973048 182.00546,57.2355199" id="path364" fill="#E9E8E8"></path>
                    <path d="M15.6259095,15.5661568 C15.6259095,14.5409714 15.3856964,13.742124 15.1375037,13.742124 L12.7859452,13.742124 C12.5120867,13.742124 11.3956187,14.8943432 11.3783644,15.8551642 C10.8142559,23.6186879 10.4209121,29.141275 10.4209121,34.7118349 C10.4209121,40.2184414 10.8012124,45.7898434 11.3745746,53.553357 C11.39225,54.513336 12.5120864,55.6504267 12.7859452,55.6504267 L15.1375037,55.6504267 C15.3856968,55.6504267 15.6212673,54.8498744 15.6212673,53.8415221 C15.2115425,47.4544498 14.868277,41.1313101 14.868277,34.6966964 C14.868277,28.2603879 15.0352828,21.9536605 15.6259095,15.5661568" id="path368" fill="#8D8F93"></path>
                    <path d="M12.8229493,13.9019818 C12.1986668,14.109792 11.6223467,15.2620213 11.5428442,15.8707338 C11.1903148,21.2170717 10.6144157,26.7081187 10.6144157,32.1028195 C10.4061845,39.22608 11.0620075,46.4460975 11.5268633,53.5369652 C11.6383272,54.1292658 12.1986668,55.2823375 12.8229493,55.4897263 L15.1442308,55.4897263 C15.7209719,54.3215164 15.3688635,52.1121404 15.2729591,50.8635858 C14.9519801,44.7331177 14.5674897,38.4419397 14.7281794,32.2946592 C14.7281794,26.7081187 15.0163344,21.1215782 15.4643573,15.5661568 C15.4479453,15.0054167 15.4004244,14.414369 15.1442308,13.9019818 L12.8229493,13.9019818" id="path370" fill="#D2D2D1"></path>
                    <path d="M1.62505505,11.0043907 C2.39320442,7.09885817 5.40271173,5.20918764 9.7251276,5.36947687 L10.3334091,5.36947687 L10.7498815,11.3569201 L3.12938264,10.9724192 C1.91364149,16.3662881 1.41640322,25.4595536 1.41640322,34.6159201 C1.41640322,43.6115969 1.84801413,52.6888819 3.11340212,58.3069728 L10.7330589,57.9388839 L10.3170075,63.9263272 L9.72512793,63.9263272 C5.40271207,64.0865959 2.3932051,62.1973568 1.62505538,58.2905609 C0.6007225,53.2967525 0.34495024,43.9805282 0.34495024,34.6634615 C0.34495024,26.8999275 0.0879146154,18.5600941 1.62505538,11.0043907" id="path372" fill="#8D8F93"></path>
                    <path d="M191.242192,49.5834702 L191.242192,49.5346758 L191.353234,49.5346758 L191.242192,49.5834702 Z M191.225369,19.8082379 L191.353234,19.8406304 L191.225369,19.8406304 L191.225369,19.8082379 Z M183.925828,7.89855803 C185.015388,7.70588639 186.455782,8.15516255 188.151929,9.62793933 C189.432455,10.8125614 192.057882,13.9814847 192.089412,19.8406307 L192.250533,19.8406307 C193.594592,23.9708064 194.250435,28.6772917 194.171333,34.0076386 L194.154942,34.0076386 L194.171333,34.1031321 C194.154942,34.5195944 194.154942,34.9356353 194.138941,35.3680886 L194.202904,35.3680886 C194.267238,40.6992879 193.627396,45.4213432 192.266124,49.5346755 L192.089413,49.5346755 C192.057883,55.4098024 189.448025,58.563998 188.151929,59.7477778 C186.455783,61.2209756 185.015388,61.6849793 183.940988,61.4771692 L181.988637,63.7656368 C182.693265,63.7025254 183.301577,63.6213385 183.797531,63.5418256 C189.400042,62.4527074 193.307269,60.5327497 194.171333,57.331434 C195.835929,51.4087761 196.604521,43.0520993 196.604521,34.6634713 L196.604521,34.0076383 L196.587677,34.0076383 C196.556558,25.8592028 195.787988,17.8075241 194.171333,12.0602734 C193.307269,8.85979971 189.400042,6.93816779 183.797531,5.84946048 C183.285986,5.75396702 182.677284,5.68961279 181.973499,5.62609082 L183.925828,7.89855736 L183.925828,7.89855803 Z" id="path374" fill="#8D8F93"></path>
                    <path d="M155.70456,6.2835988 L133.357556,7.4488612 C130.523476,7.59357038 128.890431,8.25319317 128.730563,8.87957067 L128.250609,10.7271635 C128.154684,11.1120854 129.530725,11.3825755 131.597076,11.3825755 L135.91865,11.3825755 C140.592311,11.3825755 144.434322,11.2105165 147.204479,10.7927912 L156.08824,9.44958505 C158.025431,9.16141995 159.402293,8.75463245 159.385881,8.26371 L159.353489,6.71226231 C159.353489,6.41526476 157.353217,6.19609577 155.704581,6.2835988" id="path376" fill="#8D8F93"></path>
                    <path d="M145.731239,10.8125614 L147.395424,6.87422548 L133.372715,7.61040337 C132.381607,7.65793437 131.372813,7.80264356 130.395179,8.04243529 C128.698601,8.4912901 128.87445,8.92332236 128.410847,10.7477862 C128.410847,11.1007161 130.908388,11.2277705 131.212144,11.2277705 C136.046926,11.2277705 140.912848,11.3081153 145.73124,10.8125611" id="path378" fill="#D2D2D1"></path>
                    <path d="M148.964547,6.79387019 L147.363894,10.5723484 C151.046448,10.0279998 154.855654,9.72343312 158.42507,8.77902409 C159.562551,8.41177716 159.209621,8.04242519 159.193209,6.76230962 C158.873494,6.44218312 156.423504,6.44218312 156.007864,6.44218312 L148.964547,6.79387019" id="path380" fill="#D2D2D1"></path>
                    <path d="M159.418253,6.4585951 C159.882267,6.4585951 160.267178,6.26634447 160.842667,5.65721087 C161.770653,4.68124125 161.30666,4.13648173 161.002945,3.00023298 C160.666386,1.80006178 160.890629,1.99147005 160.090508,0.807700385 C159.594533,0.103062548 159.065322,0.00714807692 158.185278,0.00714807692 C157.736423,0.00714807692 157.288801,0.375237019 157.384294,0.807700385 L158.61731,5.65721053 C158.713214,6.09050582 158.986241,6.45859476 159.418252,6.45859476" id="path382" fill="#8D8F93"></path>
                    <path d="M159.498197,6.4585951 C159.945799,6.44218313 160.411477,6.15359668 160.858237,5.65721087 C161.019358,5.51333361 161.114851,5.35349635 161.195186,5.19362846 C161.835459,6.1380375 162.284314,8.04243563 161.419408,8.09037755 C160.666387,8.17116394 160.3303,8.0588375 159.993741,7.97891365 C159.562551,7.89855837 159.353488,7.05048514 159.498197,6.45859543" id="path384" fill="#8D8F93"></path>
                    <path d="M130.026679,7.25829495 L131.019903,7.25829495 C131.692569,7.25829495 132.252878,7.14344178 132.252878,7.00504909 L132.252878,6.08629538 C132.252878,5.95000808 131.708119,5.83431255 131.019903,5.83431255 L130.026679,5.83431255 C129.338875,5.83431255 128.794526,5.94536587 128.794526,6.08629538 L128.794526,7.00504909 C128.794526,7.14765288 129.338875,7.25829495 130.026679,7.25829495" id="path386" fill="#8D8F93"></path>
                    <path d="M182.00546,12.1246381 C181.332383,8.33100087 183.990203,6.04171144 188.119926,9.62793933 C189.448025,10.7965705 192.089412,14.0458386 192.057862,20.0488514 C189.015972,19.2327497 182.549397,15.2620213 182.00546,12.1246381" id="path390" fill="#E9E8E8"></path>
                    <path d="M191.120611,48.3828675 C191.670855,48.2234412 191.946408,48.0303486 192.234984,47.5179714 C192.427635,47.1982559 192.736834,46.6530652 192.764605,45.7250682 C193.383434,43.0361188 193.71952,38.8899626 193.71952,34.7278255 C193.71952,30.5656784 193.28034,26.4199432 192.771342,23.7465738 C192.744002,22.8341363 192.434372,22.2893566 192.24129,21.9536706 C191.952714,21.4417044 191.677571,21.2494541 191.126938,21.1055869 C192.172705,25.5878505 192.495789,30.0692922 192.60601,34.5359858 C192.723379,39.2100992 191.877822,44.2363004 191.120611,48.3828675" id="path404" fill="#3B3B3C"></path>
                    <path d="M193.658104,34.7438064 C193.658104,35.7929627 193.403605,36.6486154 193.090216,36.6486154 C192.776806,36.6486154 192.522718,35.7929627 192.522718,34.7438064 C192.522718,33.6950714 192.776806,32.8385868 193.090216,32.8385868 C193.403605,32.8385868 193.658104,33.6950714 193.658104,34.7438064" id="path406" fill="#E9E8E8"></path>
                    <polyline id="path866" fill="#211D1D" points="43.7621908 57.9518413 119.365554 58.2012003 119.365554 58.1918313 43.7621908 57.9418313"></polyline>
                    <path d="M119.365554,58.1164066 C120.574578,58.1164066 121.510987,58.1609902 122.144934,58.2644741 C122.779312,58.3679684 123.109565,58.532037 123.108723,58.7655025 L123.115029,58.7655025 C123.112482,58.2850972 121.784014,58.1109328 119.365554,58.1100904 L119.365554,58.1164066" id="path868" fill="#211D1D"></path>
                    <polygon id="path870" fill="#211D1D" points="123.108723 60.2849783 123.118214 60.2849783 123.118214 58.7656256 123.108723 58.7656256"></polygon>
                    <path d="M123.108723,60.2849783 C123.108723,60.6202534 122.823064,61.0522857 121.719249,61.2752444 L121.720502,61.2815505 C122.825611,61.0585917 123.115029,60.6248754 123.115029,60.2849783 L123.108723,60.2849783" id="path872" fill="#211D1D"></path>
                    <polyline id="path874" fill="#211D1D" points="121.719249 61.2752444 117.012764 62.2503616 117.014017 62.2566676 121.720502 61.2815505"></polyline>
                    <path d="M117.012763,62.2503619 C115.030116,62.6575704 114.367987,62.7665285 110.356865,62.7665285 C110.220988,62.7665285 110.081743,62.7665285 109.938287,62.7661075 L109.938287,62.7728345 L110.356865,62.7728345 C114.367987,62.7728345 115.031369,62.6638869 117.014016,62.256668 L117.012763,62.2503619" id="path876" fill="#211D1D"></path>
                    <polyline id="path878" fill="#211D1D" points="109.938287 62.8288373 43.3457285 62.6369578 43.3457285 62.6463268 109.938287 62.8388318"></polyline>
                    <polyline id="path880" fill="#211D1D" points="85.4908546 57.0912216 85.7533666 63.942729 85.7627356 63.942729 85.5002236 57.0912216"></polyline>
                    <path d="M189.261249,49.3558898 C183.708796,50.3167003 178.581206,51.5652654 173.908797,53.1499379 L173.910893,53.1562439 C178.58289,51.5711508 183.710049,50.3230168 189.262502,49.3626172 L189.261249,49.3558901" id="path882" fill="#211D1D"></path>
                    <path d="M182.046705,57.5678472 C177.860146,58.3536514 172.964357,58.9425937 170.123541,58.9425937 C169.433661,58.9425937 168.86489,58.9076849 168.45726,58.8328038 L168.456007,58.8391199 C168.864479,58.9139906 169.433661,58.9489099 170.123541,58.9489099 C172.9652,58.9489099 177.860988,58.3599675 182.047958,57.5741428 L182.046705,57.5678472" id="path884" fill="#211D1D"></path>
                    <polygon id="path888" fill="#211D1D" points="126.453916 63.9263272 126.463163 63.9263272 126.463163 56.3709525 126.453916 56.3709525"></polygon>
                    <polygon id="path890" fill="#211D1D" points="124.838104 63.9263272 124.848114 63.9263272 124.848114 33.4955391 124.838104 33.4955391"></polygon>
                    <polygon id="path894" fill="#211D1D" points="43.4900271 57.1289869 126.426577 57.1289869 126.426577 57.1189924 43.4900271 57.1189924 43.4900271 57.1289869"></polygon>
                    <polygon id="path896" fill="#211D1D" points="43.4900271 56.3610939 126.426577 56.3610939 126.426577 56.3516029 43.4900271 56.3516029 43.4900271 56.3610939"></polygon>
                    <polyline id="path898" fill="#211D1D" points="163.573435 59.9400183 163.080635 64.0382225 163.087858 64.0386334 163.580635 59.9404397"></polyline>
                    <polyline id="path900" fill="#211D1D" points="43.7621908 11.5012583 119.365554 11.2531353 119.365554 11.2437513 43.7621908 11.4918743"></polyline>
                    <path d="M119.365554,11.2500675 C121.784013,11.249215 123.112482,11.0742188 123.115029,10.5950765 L123.108723,10.5950765 C123.109565,10.8281311 122.779312,10.9917682 122.144933,11.0952524 C121.510986,11.1991677 120.574578,11.2437513 119.365554,11.2437513 L119.365554,11.2500675" id="path902" fill="#211D1D"></path>
                    <polygon id="path904" fill="#211D1D" points="123.108723 10.5950765 123.118214 10.5950765 123.118214 9.07440894 123.108723 9.07440894"></polygon>
                    <path d="M123.115029,9.07434769 C123.115029,8.73486149 122.825611,8.3015662 121.720502,8.07818644 L121.719249,8.0845026 C122.823064,8.30788236 123.108723,8.73949361 123.108723,9.07434769 L123.115029,9.07434769" id="path906" fill="#211D1D"></path>
                    <polyline id="path908" fill="#211D1D" points="121.720502 8.07818644 117.014017 7.10347986 117.012764 7.10979601 121.719249 8.08449216"></polyline>
                    <path d="M117.014017,7.10347986 C115.037695,6.69795538 114.371767,6.58731332 110.393469,6.58731332 C110.246213,6.58731332 110.094787,6.58731332 109.938287,6.58774476 L109.938287,6.59405082 C110.094787,6.59361938 110.246213,6.59361938 110.393469,6.59361938 C114.372178,6.59361938 115.036422,6.70426178 117.012764,7.10979635 L117.014017,7.10348019" id="path910" fill="#211D1D"></path>
                    <polyline id="path912" fill="#211D1D" points="109.938287 6.58774442 43.3457285 6.77899792 43.3457285 6.78835142 109.938287 6.59711292"></polyline>
                    <polyline id="path914" fill="#211D1D" points="85.5172766 12.2525244 85.7778966 5.41701832 85.7685276 5.41701832 85.5072666 12.2525244"></polyline>
                    <path d="M189.262502,19.9975307 C183.710049,19.0371411 178.582869,17.788576 173.910892,16.2039039 L173.908797,16.2097889 C178.581205,17.7944715 183.708775,19.0434371 189.261248,20.0038472 L189.262501,19.997531" id="path916" fill="#211D1D"></path>
                    <path d="M182.047958,11.7855732 C177.860988,11.0001695 172.965199,10.4112376 170.123541,10.4112376 C169.43323,10.4112376 168.864479,10.4457359 168.456007,10.5210276 L168.45726,10.5273438 C168.86489,10.4524626 169.433641,10.4175333 170.123541,10.4175333 C172.964357,10.4175333 177.860146,11.0064961 182.046705,11.7918793 L182.047958,11.7855732" id="path918" fill="#211D1D"></path>
                    <polygon id="path922" fill="#211D1D" points="126.47115 13.0051142 126.480641 13.0051142 126.480641 5.44990385 126.47115 5.44990385"></polygon>
                    <polygon id="path926" fill="#211D1D" points="43.4900271 12.2433361 126.426577 12.2433361 126.426577 12.2340891 43.4900271 12.2340891 43.4900271 12.2433361"></polygon>
                    <polygon id="path928" fill="#211D1D" points="43.4900271 13.0117403 126.426577 13.0117403 126.426577 13.0017458 43.4900271 13.0017458 43.4900271 13.0117403"></polygon>
                    <polyline id="path930" fill="#211D1D" points="163.596616 9.43485712 163.103802 5.33750538 163.096616 5.3379163 163.589406 9.43570957"></polyline>
                    <path d="M190.737795,49.7761418 C191.872359,45.3695913 192.670775,40.6206174 192.670775,35.0084114 C192.670775,34.4232589 192.661943,33.8284315 192.644278,33.2235087 L192.63754,33.2239196 C192.655657,33.8284319 192.664038,34.4232589 192.664038,35.0084114 C192.664038,40.6201963 191.866032,45.3683384 190.731468,49.7744679 L190.737794,49.7761418" id="path952" fill="#211D1D"></path>
                    <path d="M190.715919,19.7135868 C191.850052,24.1192848 192.648078,28.8657526 192.648078,34.4762539 C192.648078,35.06268 192.639245,35.6583598 192.621149,36.2641145 L192.627865,36.2641145 C192.64553,35.6583598 192.654363,35.06268 192.654363,34.4762539 C192.654363,28.8653215 191.856357,24.1180319 190.722224,19.7119024 L190.715918,19.7135868" id="path954" fill="#211D1D"></path>
                    <rect id="rect4902" fill="#D2D2D1" x="18.8974339" y="7.39460397" width="104.552433" height="5.48285769"></rect>
                    <path d="M100.971193,9.33508053 L100.972877,10.9794643 C100.97413,12.0931287 101.049535,13.0203655 101.139503,13.0197903 L101.736682,13.0160006 C101.825254,13.0155897 101.89957,12.1130016 101.89844,10.9735793 L101.896756,9.32918505 C101.895503,8.19045096 101.822542,7.28967043 101.730951,7.29025567 L101.133772,7.29404543 C101.041072,7.29444591 100.970063,8.19634611 100.971193,9.33508019" id="path386-4-4" fill="#8D8F93"></path>
                    <path d="M114.448219,9.45626029 L114.449924,11.1006441 C114.451177,12.2143084 114.526581,13.1415247 114.616529,13.1409496 L115.213708,13.1371702 C115.3023,13.1367698 115.376616,12.2341813 115.375486,11.0947388 L115.373782,9.45036514 C115.372529,8.31163106 115.299589,7.41085053 115.207998,7.41143577 L114.610798,7.41522553 C114.518118,7.41561591 114.447089,8.3175262 114.448219,9.45626029" id="path386-4-4-6" fill="#8D8F93"></path>
                    <path d="M87.7971621,9.38113279 L87.7988465,10.9712484 C87.80012,12.0481755 87.8755248,12.9447968 87.9654724,12.9442523 L88.5626515,12.9404625 C88.6512436,12.9400721 88.7255391,12.0672785 88.7244094,10.965425 L88.722725,9.37529923 C88.7214721,8.27414438 88.6485321,7.40307582 88.5569206,7.40364053 L87.9597415,7.40743029 C87.8670618,7.40782067 87.7960324,8.27995707 87.7971621,9.38113279" id="path386-4-4-4" fill="#8D8F93"></path>
                    <path d="M74.0791117,9.43775337 L74.0807961,11.0278791 C74.082049,12.1048062 74.1574743,13.0014275 74.247422,13.0008624 L74.8446011,12.9970831 C74.9331931,12.9967132 75.0074887,12.1238886 75.0063589,11.0220455 L75.0046746,9.43191981 C75.0034216,8.33075452 74.9304816,7.45969639 74.8388701,7.46027154 L74.2416911,7.4640613 C74.1490114,7.46443115 74.0779819,8.33658808 74.0791117,9.43775337" id="path386-4-4-4-0" fill="#8D8F93"></path>
                    <path d="M60.655563,9.43775337 L60.6572474,11.0278791 C60.6585108,12.1048062 60.7339156,13.0014275 60.8238733,13.0008624 L61.4210423,12.9970831 C61.5096344,12.9967132 61.58394,12.1238886 61.5828103,11.0220455 L61.5811259,9.43191981 C61.579873,8.33075452 61.5069225,7.45969639 61.4153215,7.46027154 L60.8181424,7.4640613 C60.7254526,7.46443115 60.6544333,8.33658808 60.655563,9.43775337" id="path386-4-4-4-2" fill="#8D8F93"></path>
                    <path d="M47.1940246,9.43775337 L47.1957089,11.0278791 C47.1969723,12.1048062 47.2723771,13.0014275 47.3623349,13.0008624 L47.9595038,12.9970831 C48.0480959,12.9967132 48.1224016,12.1238886 48.1212718,11.0220455 L48.1195875,9.43191981 C48.1183345,8.33075452 48.0453841,7.45969639 47.953783,7.46027154 L47.3566039,7.4640613 C47.2639142,7.46443115 47.1928948,8.33658808 47.1940246,9.43775337" id="path386-4-4-4-2-9" fill="#8D8F93"></path>
                    <rect id="rect4902-7" fill="#D2D2D1" x="18.5193035" y="56.865762" width="104.930564" height="5.48285769"></rect>
                    <path d="M100.971193,58.8062448 L100.972877,60.4506185 C100.97413,61.5642929 101.049535,62.4915096 101.139503,62.4909344 L101.736682,62.4871447 C101.825254,62.4867442 101.89957,61.5841558 101.89844,60.4447234 L101.896756,58.8003497 C101.895503,57.661595 101.822542,56.7608246 101.730951,56.7614102 L101.133772,56.7651895 C101.041072,56.7656004 100.970063,57.6675003 100.971193,58.8062448" id="path386-4-4-43" fill="#8D8F93"></path>
                    <path d="M114.448219,58.9274141 L114.449924,60.5717878 C114.451177,61.6854623 114.526581,62.612689 114.616529,62.6121038 L115.213708,62.608314 C115.3023,62.6079135 115.376616,61.7053355 115.375486,60.5658927 L115.373782,58.9215089 C115.372529,57.7827748 115.299589,56.8820044 115.207977,56.8825795 L114.610798,56.8863693 C114.518118,56.8867802 114.447089,57.78867 114.448219,58.9274141" id="path386-4-4-6-7" fill="#8D8F93"></path>
                    <path d="M87.7971621,58.8522866 L87.7988465,60.4424124 C87.80012,61.5193395 87.8755248,62.4159607 87.9654724,62.4154061 L88.5626515,62.4116268 C88.6512436,62.4112468 88.7255597,61.5384323 88.7244299,60.4365892 L88.7227455,58.8464635 C88.7214721,57.7452982 88.6485321,56.8742401 88.5569206,56.8748152 L87.959762,56.8785845 C87.8670618,56.8789749 87.7960324,57.7511318 87.7971621,58.852287" id="path386-4-4-4-5" fill="#8D8F93"></path>
                    <path d="M74.0791117,58.9088968 L74.0807961,60.4990225 C74.082049,61.5759496 74.1574743,62.4725709 74.247422,62.4720163 L74.8446011,62.4682265 C74.9331931,62.4678566 75.0075092,61.5950425 75.0063795,60.4931994 L75.0046951,58.9030737 C75.0034216,57.8018983 74.9304816,56.9308502 74.8388701,56.931415 L74.2417116,56.9352047 C74.1490114,56.9355847 74.0779819,57.8077315 74.0791117,58.9088968" id="path386-4-4-4-0-6" fill="#8D8F93"></path>
                    <path d="M60.655563,58.9088968 L60.6572474,60.4990225 C60.6585108,61.5759496 60.7339156,62.4725709 60.8238733,62.4720162 L61.4210423,62.4682265 C61.5096344,62.4678566 61.58394,61.5950425 61.5828103,60.4931994 L61.5811259,58.9030737 C61.579873,57.8018983 61.5069225,56.9308502 61.4153215,56.931415 L60.8181424,56.9352047 C60.7254526,56.9355847 60.6544333,57.8077315 60.655563,58.9088968" id="path386-4-4-4-2-8" fill="#8D8F93"></path>
                    <path d="M47.1940246,58.9088968 L47.1957089,60.4990225 C47.1969723,61.5759496 47.2723771,62.4725709 47.3623349,62.4720162 L47.9595038,62.4682265 C48.0480959,62.4678566 48.1224016,61.5950425 48.1212718,60.4931994 L48.1195875,58.9030737 C48.1183345,57.8018983 48.0453841,56.9308502 47.953783,56.931415 L47.3566039,56.9352047 C47.2639142,56.9355847 47.1928948,57.8077315 47.1940246,58.9088968" id="path386-4-4-4-2-9-1" fill="#8D8F93"></path>
                </g>
            </g>
        </g>
    </g>
</svg>